PathFileType	4	(X/Y/Z)	Patient4_TMGait_0pt7_02_left_08.trc.trc
DataRate	CameraRate	NumFrames	NumMarkers	Units	OrigDataRate	OrigDataStartFrame	OrigNumFrames
88.050314465409	88.050314465409	4	33	mm	88.050314465409	124	       141
Frame#	Time	Sacral			L.Shoulder			Chest			R.Shoulder			Neck			R.ASIS			L.ASIS			R.Thigh.Superior			R.Thigh.Lateral			R.Thigh.Inferior			R.Patella			L.Thigh.Superior			L.Thigh.Lateral			L.Thigh.Inferior			L.Patella			L.Shank.Superior			L.Shank.Lateral			L.Shank.Inferior			R.Shank.Superior			R.Shank.Lateral			R.Shank.Inferior			R.Heel			R.Midfoot.Superior			R.Midfoot.Lateral			R.Toe			L.Heel			L.Midfoot.Lateral			L.Midfoot.Superior			L.Toe			L.Elbow			L.Wrist			R.Elbow			R.Wrist			
		X1	Y1	Z1	X2	Y2	Z2	X3	Y3	Z3	X4	Y4	Z4	X5	Y5	Z5	X6	Y6	Z6	X7	Y7	Z7	X8	Y8	Z8	X9	Y9	Z9	X10	Y10	Z10	X11	Y11	Z11	X12	Y12	Z12	X13	Y13	Z13	X14	Y14	Z14	X15	Y15	Z15	X16	Y16	Z16	X17	Y17	Z17	X18	Y18	Z18	X19	Y19	Z19	X20	Y20	Z20	X21	Y21	Z21	X22	Y22	Z22	X23	Y23	Z23	X24	Y24	Z24	X25	Y25	Z25	X26	Y26	Z26	X27	Y27	Z27	X28	Y28	Z28	X29	Y29	Z29	X30	Y30	Z30	X31	Y31	Z31	X32	Y32	Z32	X33	Y33	Z33	

124	10.156928571429	771.602878592747	1001.059540036906	520.344829350298	940.282278723956	1415.268885995293	303.976392692523	1066.801932090792	1342.547297226345	445.531487362296	1019.214630210893	1428.686157219792	626.781501224692	973.479186174966	1476.058524001971	453.793093383790	1003.944946783889	929.520883320440	611.728142733763	962.236068914806	940.193862353612	338.943860971385	999.973077710361	716.656711706576	587.010097803171	898.431607641681	623.706406273959	654.138896686967	952.529821576925	557.721913320888	570.000980309341	931.616751321556	470.886803534523	574.626692171749	1040.280735571308	764.915104071730	371.777192192149	992.088564852076	634.204885183221	295.939705362600	1098.407142008222	579.445257534735	356.959737953948	1125.656588080420	515.019664114449	354.602592408413	1111.550677751283	441.970298722495	343.313557797646	1048.050077114576	310.085115063641	294.837940219172	1139.909244456899	214.393072499345	348.015530246025	890.365927472301	387.606736443859	584.676776171419	806.978102676649	296.625936228254	652.623175828820	825.942695167820	197.316837297733	586.442574505646	669.520212147559	43.094715527214	563.605907171975	841.620277744420	95.631895402727	593.318977606368	754.358767674997	36.467508567527	636.379085473625	962.471401748570	42.745427436750	620.103876125683	1062.921332015005	37.060370660056	388.084235930122	1135.115919326649	41.941037346647	306.277683239367	1206.458546750501	117.362386971557	327.461715264891	1339.358852855870	86.659084755578	298.262159770472	747.780627475342	1120.119134212630	231.385954800006	660.869447171371	877.049118598272	237.758127496783	1169.210113582053	1123.734427332475	731.730185191937	1375.627190620098	1186.618731258581	600.620136900675	
125	10.168285714286	773.549937298844	999.252546557003	517.496946147264	940.444581870352	1413.779617937307	301.209939173045	1067.215831501540	1342.153907046943	443.142356125585	1018.483332312751	1428.301485854000	624.052660457805	972.839936519604	1474.955420153006	450.943186272930	1005.705213430541	927.976926349732	609.762118019222	964.996586951342	938.869072771767	337.230639381839	1001.171351438041	714.819457100876	585.214928668965	898.997971973235	622.132177928020	652.123145801060	953.098393457524	555.712195071396	568.266125401975	931.507263191126	468.105072860452	572.911814494424	1042.934555731195	762.343483134028	370.012398634316	992.453018857716	631.860272395455	295.566498148255	1098.695638827289	576.713596224134	356.244219005606	1124.414990536464	511.453649458369	354.695187169986	1110.104434656487	438.482504757686	343.327903445057	1045.499572951607	307.099747672392	295.317021528150	1136.156808681252	210.854720268104	349.093696276906	888.375055713038	385.613495271382	583.110521843898	803.402842516290	296.354724653714	651.629303139864	820.258833744858	196.541606704083	585.791603768249	661.577526687910	43.812837998335	563.705572012754	834.004460169283	95.730851937634	593.381547016044	746.478951893649	36.688963654244	636.357554346415	954.669273958897	42.070269611989	620.208333206954	1055.906631697068	36.634022576620	389.701267738011	1127.988777555393	39.637817862809	307.635377059581	1201.698859417241	112.333984427415	329.301845367614	1333.684671102921	77.321666213973	299.736772906505	747.582541124942	1119.203963224483	229.259897941744	660.492393780971	876.060809455667	237.162816724084	1172.561302418543	1125.198146694007	726.718482200243	1372.287517475909	1199.654681112926	592.832537154998	
126	10.179642857143	775.333650682525	997.634040109700	514.606390338683	940.733209177000	1412.394383012325	298.381313981743	1067.732772731727	1341.764342145472	440.664696886020	1017.975435392712	1427.946521764288	621.268508965328	972.425403759420	1473.964233591717	448.005272408967	1007.330646163253	926.548294574395	607.682013819788	967.605321806556	937.783082829979	335.390450653989	1002.541117380500	713.134216559013	583.325980067900	899.929359950763	620.550956773100	649.933165671282	954.283985169427	553.748020532723	566.427690215505	932.182314427340	465.172755150038	571.206357982931	1045.829292718258	760.540532708714	368.237978913738	993.512804941347	630.284996861732	295.018892224530	1099.682443134856	574.846225405993	355.451784472110	1123.936855482539	508.637229649573	354.667591979887	1109.308001366447	435.589125876547	343.239932825650	1043.491345894315	304.914166274046	295.182057784027	1132.336856217791	207.785434067628	349.892695295717	886.928199927669	383.625370322930	581.512358027443	800.179475277225	296.293468024866	650.555169570581	814.842162617902	195.956786716632	585.162780008689	653.681835176562	45.030043720222	563.854557708933	826.576835268635	95.909062843930	593.516480514189	738.655698202542	37.141825799269	636.352327052383	946.904549067485	41.341489942164	620.314441265307	1048.185490087313	36.613681517875	390.738345362895	1120.307159179093	37.838127009325	308.541698768116	1196.334484999650	107.838061316364	330.883987485566	1327.453166669892	68.593630989909	301.166666970837	748.076286015838	1117.857946829430	227.046836959696	661.281004637240	874.437106942064	236.331214484938	1175.516513112399	1126.351004168356	721.862850366631	1368.331655713233	1211.270129165022	585.432156680658	
127	10.191000000000	776.918134750717	996.284670345738	511.715452658677	941.144148104801	1411.179170672855	295.515047004316	1068.341020182121	1341.412551942227	438.109223548322	1017.734491454002	1427.681017473594	618.441035134116	972.269034854015	1473.149900685450	445.002932214132	1008.773775718126	925.324602025929	605.484580521202	969.996549826544	936.999922495602	333.387825481680	1004.065344501446	711.688168516485	581.344274241288	901.247613457822	619.029447914522	647.594635463224	956.116553080464	551.914194867634	564.507578360603	933.709722913094	462.167195853358	569.588217147930	1048.856091061077	759.577115163447	366.461218576801	995.237884357858	629.523986961576	294.227473998508	1101.264905466590	573.838762737837	354.540359344380	1124.160889045771	506.624033239785	354.445355613812	1109.115024644042	433.343091369066	343.007002669423	1042.028907493330	303.542949297034	294.431413221507	1128.527118890359	205.266969796488	350.386543743571	886.093350554827	381.716104753541	579.946766566854	797.362232397544	296.546587169221	649.426995521586	809.771076414046	195.659524334579	584.592533833786	645.890494911309	46.919840965218	564.054989510441	819.406230416440	96.175637652627	593.721106029202	730.920864646318	37.926586177047	636.368061256557	939.175221870550	40.586465453745	620.411908908515	1040.118308384916	36.868515178579	391.245968715914	1112.383382184142	36.542643996646	309.018455800802	1190.490381683834	104.091012496787	332.128983503889	1320.842525340747	61.044763742082	302.419871588180	749.294750586045	1116.112044442056	224.747325930172	663.255701741032	872.222244539346	235.245990753704	1178.012636283247	1127.182564289179	717.217713212169	1363.886511840387	1221.427739738784	578.433904618830	
